# xmcd CD database file
#
# Track frame offsets:
#	150
#	16269
#	31442
#	51867
#	68590
#	78819
#	95369
#	115046
#	131038
#	145460
#	159299
#
# Disc length: 2382 seconds
#
# Revision: 0
# Processed by: cddbd v1.5.2PL0 Copyright (c) Steve Scherf et al.
# Submitted via: CDex 1.51
#
DISCID=85094c0b
DTITLE=James Talley - Love Songs and the Blues
DYEAR=1989
DGENRE=Country
TTITLE0=Your Sweet Love 
TTITLE1=Whatever Gets You Through Your Life
TTITLE2=I Can't Surrender
TTITLE3=He Went Back To Texas
TTITLE4=Working Girl 
TTITLE5=Little Child
TTITLE6=Up from Georgia
TTITLE7=All Because of You 
TTITLE8=A Collection of Sorrows
TTITLE9='Cause I'm in Love with You
TTITLE10=May Your Dreams Come True
EXTD=YEAR: 1989
EXTT0=
EXTT1=
EXTT2=
EXTT3=
EXTT4=
EXTT5=
EXTT6=
EXTT7=
EXTT8=
EXTT9=
EXTT10=
PLAYORDER=
